<svg width="296" height="343" xmlns="http://www.w3.org/2000/svg">
 <!-- Created with Method Draw - http://github.com/duopixel/Method-Draw/ -->

 <g>
  <title>background</title>
  <rect x="-1" y="-1" width="298" height="345" id="canvas_background" fill="#fff"/>
  <g id="canvasGrid" display="none">
   <rect id="svg_14" width="100%" height="100%" x="0" y="0" stroke-width="0" fill="url(#gridpattern)"/>
  </g>
 </g>
 <g>
  <title>Layer 1</title>
  <line fill="none" stroke="#000" stroke-width="1.5" stroke-opacity="null" fill-opacity="null" x1="36.499994" y1="222.949994" x2="105.499997" y2="198.949993" id="svg_7" stroke-linejoin="null" stroke-linecap="null"/>
  <line fill="none" stroke="#000" stroke-width="1.5" stroke-opacity="null" fill-opacity="null" x1="105.5" y1="314.949997" x2="130.5" y2="219.949997" id="svg_8" stroke-linejoin="null" stroke-linecap="null"/>
  <line fill="none" stroke="#000" stroke-width="1.5" stroke-opacity="null" fill-opacity="null" x1="256.500002" y1="296.949991" x2="154.499996" y2="211.949996" id="svg_9" stroke-linejoin="null" stroke-linecap="null"/>
  <line fill="none" stroke="#000" stroke-width="1.5" stroke-opacity="null" fill-opacity="null" x1="267.499991" y1="133.949986" x2="153.499987" y2="184.949994" id="svg_10" stroke-linejoin="null" stroke-linecap="null"/>
  <path d="m113.013565,171.383575l-75.027153,-67.867172"/>
  <path d="m113.013565,171.383575l-75.027153,-67.867172"/>
  <path d="m143.013565,146.383575l-75.027153,-67.867172"/>
  <path d="m137.013565,196.383575l-75.027153,-67.867172"/>
  <path d="m179.013565,204.383575l-75.027153,-67.867172"/>
  <path d="m145.013565,190.383575l-75.027153,-67.867172"/>
  <line transform="rotate(1.48368, 95.5, 154.45)" fill="none" stroke="#000" stroke-width="1.5" stroke-opacity="null" fill-opacity="null" x1="133.013566" y1="188.383578" x2="57.986409" y2="120.516403" id="svg_11" stroke-linejoin="null" stroke-linecap="null"/>
  <line fill="none" stroke="#000" stroke-width="1.5" stroke-opacity="null" x1="179.5" y1="56.949997" x2="144.5" y2="164.949997" id="svg_13" stroke-linejoin="null" stroke-linecap="null"/>
  <ellipse fill="#007fff" stroke="#000" stroke-width="1.5" cx="107" cy="300.449997" id="svg_1" rx="29.5" ry="29.5"/>
  <ellipse fill="#007fff" stroke="#000" stroke-width="1.5" cx="34" cy="220.449997" id="svg_2" rx="29.5" ry="29.5"/>
  <ellipse fill="#007fff" stroke="#000" stroke-width="1.5" cx="248" cy="292.449997" id="svg_3" rx="29.5" ry="29.5"/>
  <ellipse fill="#007fff" stroke="#000" stroke-width="1.5" cx="134" cy="190.449997" id="svg_4" rx="29.5" ry="29.5"/>
  <ellipse fill="#007fff" stroke="#000" stroke-width="1.5" cx="44" cy="110.449997" id="svg_5" rx="29.5" ry="29.5"/>
  <ellipse fill="#007fff" stroke="#000" stroke-width="1.5" cx="253" cy="143.449997" id="svg_6" rx="29.5" ry="29.5"/>
  <ellipse fill="#007fff" stroke="#000" stroke-width="1.5" cx="183" cy="37.449997" id="svg_12" rx="29.5" ry="29.5"/>
 </g>
</svg>