<svg width="580" height="400" xmlns="http://www.w3.org/2000/svg">
 <!-- Created with Method Draw - http://github.com/duopixel/Method-Draw/ -->
 <g>
  <title>background</title>
  <rect fill="#fff" id="canvas_background" height="402" width="582" y="-1" x="-1"/>
  <g display="none" overflow="visible" y="0" x="0" height="100%" width="100%" id="canvasGrid">
   <rect fill="url(#gridpattern)" stroke-width="0" y="0" x="0" height="100%" width="100%"/>
  </g>
 </g>
 <g>
  <title>Layer 1</title>
  <line stroke-linecap="null" stroke-linejoin="null" id="svg_7" y2="203.949997" x2="214.5" y1="242.949997" x1="95.5" fill-opacity="null" stroke-opacity="null" stroke-width="1.5" stroke="#000" fill="none"/>
  <line stroke-linecap="null" stroke-linejoin="null" id="svg_8" y2="224.949997" x2="239.5" y1="319.949997" x1="214.5" fill-opacity="null" stroke-opacity="null" stroke-width="1.5" stroke="#000" fill="none"/>
  <line stroke-linecap="null" stroke-linejoin="null" id="svg_9" y2="216.949997" x2="263.5" y1="322.949997" x1="336.5" fill-opacity="null" stroke-opacity="null" stroke-width="1.5" stroke="#000" fill="none"/>
  <line stroke-linecap="null" stroke-linejoin="null" id="svg_10" y2="189.949993" x2="262.499986" y1="130.949987" x1="394.499989" fill-opacity="null" stroke-opacity="null" stroke-width="1.5" stroke="#000" fill="none"/>
  <line stroke-linecap="null" stroke-linejoin="null" id="svg_11" y2="66.949997" x2="184.5" y1="169.949997" x1="227.5" fill-opacity="null" stroke-opacity="null" stroke-width="1.5" stroke="#000" fill="none"/>
  <line stroke-linecap="null" stroke-linejoin="null" id="svg_13" y2="169.949997" x2="253.5" y1="61.949997" x1="288.5" stroke-opacity="null" stroke-width="1.5" stroke="#000" fill="none"/>
  <ellipse ry="29.5" rx="29.5" id="svg_1" cy="347.449997" cx="210" stroke-width="1.5" stroke="#000" fill="#007fff"/>
  <ellipse ry="29.5" rx="29.5" id="svg_2" cy="250.449997" cx="66" stroke-width="1.5" stroke="#000" fill="#007fff"/>
  <ellipse ry="29.5" rx="29.5" id="svg_3" cy="353.449997" cx="341" stroke-width="1.5" stroke="#000" fill="#007fff"/>
  <ellipse ry="29.5" rx="29.5" id="svg_4" cy="195.449997" cx="243" stroke-width="1.5" stroke="#000" fill="#007fff"/>
  <ellipse ry="29.5" rx="29.5" id="svg_5" cy="42.449997" cx="171" stroke-width="1.5" stroke="#000" fill="#007fff"/>
  <ellipse ry="29.5" rx="29.5" id="svg_6" cy="113.449997" cx="416" stroke-width="1.5" stroke="#000" fill="#007fff"/>
  <ellipse ry="29.5" rx="29.5" id="svg_12" cy="35.449997" cx="292" stroke-width="1.5" stroke="#000" fill="#007fff"/>
 </g>
</svg>